<svg preserveAspectRatio="none" width="100%" height="100%" overflow="visible" style="display: block;" viewBox="0 0 117.955 18.8296" fill="none" xmlns="http://www.w3.org/2000/svg">
<g id="Group 427321650">
<path id="Vector" d="M25.8702 0.00197716V3.34484C25.7689 3.42471 25.6559 3.38964 25.5507 3.38964C24.6663 3.38964 23.7799 3.38964 22.8955 3.38964C21.5027 3.40737 20.1597 3.91055 19.0982 4.81241C18.0367 5.71427 17.3231 6.95828 17.0805 8.32991C16.8135 9.90957 17.1838 11.5307 18.1103 12.8377C19.0368 14.1447 20.4438 15.0309 22.0228 15.302C22.3443 15.3598 22.6701 15.3898 22.9968 15.3916H28.7533C28.8468 15.4121 28.9446 15.3953 29.026 15.3449V11.8384H23.026V8.47407H32.3767V18.713C32.3085 18.7812 32.213 18.754 32.1293 18.754C28.9773 18.754 25.8273 18.7793 22.6754 18.754C20.7692 18.7284 18.9231 18.0837 17.4156 16.9169C15.5636 15.5801 14.2892 13.5891 13.8507 11.3474C13.2078 8.18965 13.987 5.37666 16.1708 2.99029C17.6451 1.37584 19.6496 0.343849 21.8202 0.0818466C22.2236 0.0263255 22.6304 -0.00101318 23.0377 2.86867e-05C23.8734 2.86867e-05 24.7072 2.86867e-05 25.5429 2.86867e-05L25.8702 0.00197716Z" fill="var(--fill-0, black)"/>
<path id="Vector_2" d="M38.515 18.7695H35.1449C35.1449 17.9065 35.1449 17.0552 35.1449 16.2059V3.40132H27.5007C27.4306 3.17924 27.4169 0.356508 27.4812 0.0194941H46.1825V3.37989C45.339 3.40716 44.4897 3.37989 43.6501 3.39158C42.8105 3.40327 41.9592 3.39158 41.1176 3.39158H38.5267L38.515 18.7695Z" fill="var(--fill-0, black)"/>
<path id="Vector_3" d="M70.7163 4.55848V7.05394C70.6104 7.10006 70.4932 7.11428 70.3793 7.09485H60.4189C60.2401 7.08344 60.0606 7.10054 59.8871 7.1455C59.6395 7.22504 59.4223 7.37866 59.2649 7.5856C59.1074 7.79254 59.0172 8.04282 59.0066 8.30264C58.9871 8.71953 58.9968 9.13641 58.9949 9.55524C59.0003 9.60392 59.0094 9.65211 59.0222 9.6994H68.1546V12.265C67.5488 12.265 66.9449 12.265 66.343 12.265H59.0631C59.034 12.2921 59.0122 12.3262 59 12.364C58.9877 12.4018 58.9853 12.4422 58.9929 12.4812C58.9929 13.2858 58.9929 14.0903 58.9929 14.8949C58.9814 15.1706 59.0586 15.4428 59.2132 15.6715C59.3679 15.9001 59.5918 16.0731 59.852 16.165C60.0316 16.2237 60.2205 16.2488 60.4092 16.239H70.3676C70.4835 16.2197 70.6025 16.2339 70.7105 16.2799V18.7793C70.6077 18.8269 70.4926 18.8412 70.3813 18.8202C67.0111 18.8202 63.6429 18.8299 60.2728 18.8202C58.7455 18.8202 57.6274 18.078 56.8793 16.7689C56.5708 16.2087 56.4156 15.5771 56.4293 14.9377C56.4293 12.7611 56.4293 10.5851 56.4293 8.40979C56.4227 7.52766 56.7174 6.66971 57.2647 5.97787C57.812 5.28604 58.5791 4.80178 59.439 4.60523C59.7099 4.54285 59.987 4.51148 60.265 4.51172H70.3949C70.5043 4.49023 70.6177 4.50672 70.7163 4.55848Z" fill="var(--fill-0, #BA161C)"/>
<path id="Vector_4" d="M104.451 14.2754H106.921C106.951 14.2971 106.975 14.3267 106.991 14.361C107.006 14.3953 107.011 14.433 107.007 14.4702C107.063 14.9582 107.3 15.4074 107.671 15.7296C108.042 16.0518 108.52 16.2238 109.011 16.2117C110.462 16.1942 111.914 16.2117 113.365 16.2117C113.624 16.223 113.882 16.1823 114.124 16.0921C114.367 16.0019 114.589 15.864 114.777 15.6866C114.965 15.5091 115.116 15.2957 115.221 15.059C115.325 14.8223 115.381 14.5671 115.385 14.3084C115.389 14.0497 115.342 13.7927 115.245 13.5528C115.148 13.3128 115.004 13.0947 114.822 12.9113C114.639 12.7279 114.422 12.5829 114.182 12.485C113.943 12.387 113.686 12.338 113.427 12.3409C111.966 12.3409 110.505 12.3409 109.042 12.3409C108.546 12.3646 108.049 12.3444 107.556 12.2806C106.808 12.1443 106.118 11.7867 105.575 11.2539C105.032 10.7212 104.661 10.0378 104.511 9.29224C104.213 7.85458 104.574 6.59223 105.641 5.56561C106.315 4.89905 107.225 4.52527 108.174 4.52535C110.172 4.51171 112.169 4.51561 114.168 4.52535C115.003 4.55099 115.807 4.8443 116.463 5.36201C117.118 5.87972 117.59 6.59442 117.809 7.40068C117.842 7.52495 117.868 7.65116 117.887 7.7786C117.914 7.99289 117.931 8.20912 117.955 8.42146C117.731 8.49159 115.956 8.51497 115.381 8.46042C115.307 8.35133 115.329 8.21496 115.296 8.09419C115.231 7.81563 115.075 7.56685 114.852 7.38775C114.629 7.20865 114.352 7.10961 114.066 7.10652C113.501 7.09678 112.935 7.10652 112.368 7.10652C111.025 7.10652 109.683 7.10652 108.341 7.10652C108.02 7.09295 107.705 7.19297 107.451 7.38899C107.242 7.55246 107.087 7.77535 107.006 8.02844C106.926 8.28152 106.924 8.55298 107.001 8.80717C107.065 9.06035 107.206 9.28726 107.405 9.45627C107.604 9.62529 107.851 9.72798 108.111 9.75003C108.24 9.76679 108.371 9.7746 108.501 9.77341C110.122 9.77341 111.742 9.79289 113.371 9.77341C113.963 9.77111 114.551 9.88553 115.099 10.1101C115.647 10.3347 116.146 10.6651 116.566 11.0825C116.987 11.4998 117.321 11.9959 117.55 12.5424C117.779 13.0889 117.898 13.6751 117.9 14.2676C117.902 14.8601 117.788 15.4472 117.563 15.9955C117.339 16.5437 117.008 17.0424 116.591 17.463C116.174 17.8835 115.678 18.2178 115.131 18.4467C114.585 18.6755 113.998 18.7945 113.406 18.7968C111.935 18.7968 110.464 18.7968 108.992 18.7968C107.806 18.8125 106.663 18.36 105.809 17.5375C104.956 16.715 104.461 15.5889 104.433 14.4039C104.432 14.3604 104.438 14.3171 104.451 14.2754Z" fill="var(--fill-0, #BA161C)"/>
<path id="Vector_5" d="M0 3.39741V0.0214325H17.626C17.6416 0.111043 17.5598 0.128575 17.5072 0.159744C16.7653 0.60593 16.0787 1.13819 15.4617 1.74546C15.0127 2.18171 14.6087 2.66206 14.2559 3.17923C14.2111 3.24546 14.1643 3.30975 14.1059 3.38962H11.065V18.7695H7.69092V3.39741H0Z" fill="var(--fill-0, black)"/>
<path id="Vector_6" d="M40.1065 4.54874C44.0318 7.52537 47.8792 10.5312 51.7461 13.4981L51.787 13.4845C51.7955 13.4795 51.8028 13.4729 51.8085 13.465C51.8152 13.4462 51.8191 13.4265 51.8202 13.4066C51.8202 13.3773 51.8202 13.3481 51.8202 13.3189C51.8202 10.4163 51.8202 7.51433 51.8202 4.61303C51.8183 4.59425 51.8183 4.57532 51.8202 4.55654C51.8273 4.53589 51.8358 4.51572 51.8455 4.49615C52.6695 4.45718 53.5072 4.49615 54.378 4.51368V18.7462C54.2806 18.7871 54.2221 18.6975 54.1578 18.6468C52.5487 17.4156 50.9409 16.1819 49.3344 14.9455C47.2085 13.3091 45.0844 11.6715 42.9623 10.0325C42.8864 9.97408 42.8201 9.89031 42.7188 9.87668L42.6896 9.89811C42.6896 9.89811 42.6721 9.91174 42.6721 9.91953C42.6653 9.9483 42.6614 9.97766 42.6604 10.0072L42.6487 18.7403C42.6469 18.7502 42.6429 18.7595 42.637 18.7676C41.7944 18.8335 40.9481 18.84 40.1046 18.7871L40.1065 4.54874Z" fill="var(--fill-0, #BA161C)"/>
<path id="Vector_7" d="M72.2338 4.52342H75.4968L79.3929 9.57083L83.289 4.53121H86.5715L81.0448 11.6903C82.8702 14.0514 84.6955 16.4124 86.55 18.8066H83.2949C82.0234 17.1624 80.7319 15.491 79.4202 13.7923L75.5455 18.8144H72.2766L77.7643 11.6923L72.2338 4.52342Z" fill="var(--fill-0, #BA161C)"/>
<path id="Vector_8" d="M88.0755 4.50783H90.5787C90.6254 4.61364 90.6396 4.73093 90.6196 4.84484C90.6196 7.0903 90.6196 9.33641 90.6196 11.5832C90.6103 12.6637 90.9831 13.7128 91.6723 14.5451C92.3614 15.3773 93.3226 15.9393 94.3859 16.1316C95.4492 16.3239 96.5463 16.1341 97.4833 15.5959C98.4203 15.0577 99.137 14.2057 99.5066 13.1903C99.6855 12.6735 99.7757 12.1301 99.7735 11.5832C99.7735 9.33641 99.7735 7.0903 99.7735 4.84484C99.7533 4.73175 99.7668 4.61521 99.8125 4.50978H102.318C102.359 4.61833 102.371 4.73595 102.353 4.85069C102.353 7.1455 102.368 9.44225 102.353 11.7371C102.332 13.4111 101.724 15.0247 100.637 16.2974C99.549 17.5702 98.0497 18.4215 96.3995 18.7033C94.668 18.9959 92.8894 18.6428 91.401 17.7109C89.9126 16.7791 88.818 15.3334 88.3248 13.6481C88.1385 13.0295 88.0433 12.387 88.0423 11.741C88.0423 9.44485 88.0423 7.14874 88.0423 4.85263C88.0297 4.73664 88.041 4.6193 88.0755 4.50783Z" fill="var(--fill-0, #BA161C)"/>
</g>
</svg>
