<svg preserveAspectRatio="none" width="100%" height="100%" overflow="visible" style="display: block;" viewBox="0 0 30.5986 30.3493" fill="none" xmlns="http://www.w3.org/2000/svg">
<g id="Group 427321649">
<path id="Vector" d="M15.3202 19.0395C15.4448 19.0084 15.515 18.9012 15.5929 18.8175C16.1771 18.1792 16.8364 17.614 17.5565 17.1343C18.326 16.6416 19.1876 16.3102 20.089 16.1603C21.1855 16.0037 22.3038 16.1263 23.3403 16.5168C24.9064 17.0919 26.2867 18.0817 27.3338 19.3805C28.6215 20.9175 29.4767 22.6921 30.1098 24.5759C30.3762 25.2821 30.5364 26.024 30.5851 26.7772C30.63 27.4356 30.4882 28.0933 30.176 28.6746C29.7241 29.4733 29.0072 29.9272 28.1384 30.1571C27.2368 30.3681 26.3034 30.4058 25.3877 30.2681C23.3345 30.0246 21.4916 29.1889 19.752 28.1389C17.9413 27.04 16.2599 25.7409 14.7396 24.2662L14.5877 24.1279C14.2974 24.3344 14.0033 24.5408 13.7169 24.7454C12.3689 25.6921 11.015 26.637 9.5773 27.4474C8.26095 28.2093 6.83418 28.762 5.34807 29.0857C4.37941 29.3147 3.37931 29.3806 2.38898 29.2805C1.5591 29.1772 0.830531 28.8772 0.37079 28.1233C0.189862 27.814 0.0757223 27.4703 0.0357243 27.1142C-0.0695765 26.1531 0.0587339 25.1807 0.409751 24.2798C0.86139 23.05 1.40582 21.8563 2.03832 20.709C2.95389 18.991 3.98211 17.3354 5.11625 15.7532L5.5195 15.1999C5.52061 15.1902 5.52061 15.1804 5.5195 15.1707C5.50976 15.0967 5.45327 15.0519 5.41041 14.9973C4.08179 13.3289 2.92036 11.5339 1.94287 9.63823C1.42962 8.66463 0.974278 7.66159 0.579232 6.63433C0.289092 5.92512 0.118597 5.1727 0.0746863 4.4077C0.0279329 3.06744 0.550011 2.07003 1.94482 1.6025C2.66171 1.3946 3.40864 1.30963 4.15391 1.3512C5.20586 1.3512 6.18768 1.6551 7.15002 2.04081C8.70758 2.69489 10.1999 3.49454 11.6072 4.42913C12.5812 5.04861 13.528 5.70316 14.4358 6.41614C14.4747 6.44731 14.5156 6.47264 14.576 6.5155C14.8137 6.29342 15.0474 6.06939 15.2871 5.84926C17.2525 4.01771 19.486 2.49695 21.9104 1.33951C22.9806 0.83953 24.1022 0.458043 25.2552 0.20185C26.0313 0.0227436 26.83 -0.0376844 27.6241 0.0226274C28.1619 0.0578065 28.6847 0.21432 29.1533 0.480422C29.5213 0.699877 29.835 0.999525 30.0711 1.35705C30.3072 1.71458 30.4596 2.12076 30.5169 2.54536C30.6944 3.58701 30.5812 4.65742 30.1897 5.63887C29.5425 7.3599 28.6636 8.98461 27.5773 10.4681C26.6345 11.77 25.3844 12.8186 23.9384 13.5207C23.0553 13.961 22.0848 14.198 21.0981 14.2142C19.8083 14.2181 18.5472 13.8339 17.4786 13.1116C16.8709 12.7143 16.3079 12.2525 15.7994 11.7343C15.6751 11.5917 15.5374 11.4612 15.3883 11.3447C15.4055 11.303 15.4097 11.257 15.4003 11.2129C15.3909 11.1687 15.3684 11.1285 15.3358 11.0973C15.2734 11.0213 15.2091 10.9454 15.1409 10.8752C14.3072 10.0709 13.4312 9.31138 12.5169 8.59992C12.4533 8.53707 12.3686 8.50024 12.2793 8.49667C12.2352 8.44356 12.187 8.39405 12.1351 8.34861C11.1013 7.5601 9.95979 6.92376 8.74548 6.459C7.61948 6.00886 6.41652 5.78256 5.20392 5.79277C4.95056 5.77783 4.69689 5.81623 4.45931 5.90549C4.22174 5.99475 4.00553 6.13288 3.82469 6.31095C3.35684 6.73427 3.03497 7.2948 2.90521 7.91225C2.79805 8.25305 2.74673 8.60895 2.75326 8.96615C2.82034 9.62932 3.00713 10.2748 3.30456 10.8713C3.90453 12.1266 4.62202 13.3222 5.44742 14.4421C5.65392 14.7324 5.8643 15.0265 6.06301 15.2915C6.06092 15.3205 6.05366 15.3488 6.04158 15.3753C5.99872 15.4415 5.95197 15.5058 5.90521 15.5701C4.94198 16.8725 4.10631 18.2647 3.40976 19.7272C3.12612 20.3076 2.9242 20.9245 2.80975 21.5603C2.68118 22.398 2.84092 23.1597 3.45456 23.7889C3.91994 24.243 4.50751 24.5516 5.14547 24.6772C5.18259 24.692 5.22312 24.696 5.2624 24.6887C5.30169 24.6815 5.33813 24.6633 5.36755 24.6363C5.5173 24.7162 5.68799 24.7482 5.85651 24.7279C6.23283 24.7062 6.60678 24.654 6.9747 24.572C8.26466 24.2634 9.5089 23.7879 10.676 23.1577C11.171 22.9035 11.6378 22.5979 12.0689 22.246C12.1526 22.1759 12.2637 22.1175 12.2033 21.9811C12.2577 22.0063 12.3185 22.0145 12.3777 22.0044C12.4368 21.9943 12.4915 21.9665 12.5344 21.9246C12.6435 21.8253 12.7663 21.7298 12.8754 21.6363C13.6838 20.8727 14.4435 20.0584 15.213 19.248C15.2727 19.1937 15.3107 19.1197 15.3202 19.0395ZM25.2299 25.1954C25.2124 25.0493 25.2065 24.8993 25.1793 24.7551C25.078 24.2192 24.928 23.6937 24.7312 23.185C24.3327 22.1378 23.8109 21.1418 23.1767 20.2181C22.8977 19.7528 22.4484 19.4146 21.9241 19.2753C21.4744 19.1836 21.0085 19.2132 20.5741 19.361C19.7527 19.634 18.9896 20.0581 18.3241 20.6116C18.086 20.7756 17.8722 20.9723 17.689 21.196C17.521 21.2826 17.3704 21.3995 17.2448 21.5408C16.7052 22.0688 16.1793 22.6103 15.6202 23.1188C15.4905 23.212 15.385 23.3349 15.3124 23.4772C15.3689 23.5318 15.4176 23.5824 15.4702 23.6253C16.3819 24.3772 17.3111 25.1097 18.2812 25.7837C19.147 26.404 20.0685 26.9427 21.0338 27.3928C21.7702 27.724 22.526 27.9266 23.3442 27.7824C23.7311 27.7373 24.1003 27.5951 24.4174 27.3689C24.7345 27.1427 24.9892 26.84 25.1578 26.4889C25.2686 26.2948 25.3327 26.0776 25.3452 25.8545C25.3577 25.6314 25.3182 25.4085 25.2299 25.2032V25.1954ZM17.6812 9.22135C17.6968 9.34407 17.7961 9.40446 17.876 9.47849C18.3896 9.97622 18.956 10.4165 19.565 10.7915C19.9664 11.0504 20.4082 11.2407 20.8721 11.3545C21.5598 11.5025 22.1793 11.3954 22.6488 10.8188C23.783 9.44726 24.6201 7.85522 25.1072 6.14342C25.2387 5.7775 25.2577 5.38061 25.1617 5.0038C25.1754 4.96679 25.2046 4.92978 25.2027 4.89471C25.1761 4.36785 25.0344 3.85321 24.7877 3.38692C24.6704 3.16746 24.5059 2.97664 24.3062 2.82813C24.1065 2.67961 23.8765 2.57707 23.6325 2.52783C23.2503 2.46057 22.858 2.47786 22.4832 2.57848C21.622 2.81625 20.7956 3.16529 20.0247 3.61679C18.3276 4.55048 16.6918 5.59156 15.1273 6.73368C15.065 6.77848 14.9871 6.80965 14.9617 6.91679C15.0455 7.06679 15.2091 7.15056 15.3358 7.27329C15.9747 7.89667 16.6312 8.50056 17.3189 9.07134C17.4241 9.1668 17.5273 9.27589 17.6812 9.23693V9.22135Z" fill="var(--fill-0, #BA161C)"/>
<path id="Vector_2" d="M12.2773 8.50251C12.3666 8.50609 12.4514 8.54291 12.5149 8.60576C13.4293 9.31723 14.3052 10.0767 15.139 10.8811C15.2091 10.9512 15.2734 11.0272 15.3338 11.1032C15.3664 11.1343 15.3889 11.1746 15.3983 11.2187C15.4077 11.2629 15.4035 11.3088 15.3864 11.3506C14.8954 11.8142 14.4052 12.2785 13.9156 12.7434L11.5565 14.9778C11.5292 15.0051 11.5039 15.0343 11.4474 15.0947L15.3201 19.0395C15.3098 19.1183 15.2718 19.1908 15.213 19.2441C14.4513 20.0545 13.6916 20.8688 12.8753 21.6324C12.7662 21.7337 12.6435 21.8272 12.5344 21.9207C12.4914 21.9626 12.4367 21.9904 12.3776 22.0005C12.3185 22.0106 12.2577 22.0025 12.2032 21.9772C10.9448 20.7616 9.70388 19.5266 8.41427 18.309C8.2818 18.5038 8.17077 18.6675 8.06167 18.8331C7.21824 20.0669 6.45435 21.3533 5.77466 22.6844C5.56751 23.0774 5.4067 23.4932 5.29544 23.9233C5.24089 24.159 5.1766 24.4123 5.35972 24.6324C5.3303 24.6594 5.29385 24.6776 5.25457 24.6848C5.21529 24.6921 5.17476 24.6881 5.13764 24.6733C4.49968 24.5478 3.91211 24.2391 3.44673 23.785C2.83309 23.1558 2.66751 22.3941 2.80193 21.5564C2.91637 20.9206 3.11829 20.3037 3.40193 19.7233C4.09848 18.2608 4.93415 16.8686 5.89738 15.5662C5.94414 15.5019 5.99089 15.4376 6.03375 15.3714C6.04583 15.3449 6.05309 15.3166 6.05518 15.2876C5.86037 15.0149 5.64608 14.7285 5.43959 14.4382C4.61419 13.3183 3.8967 12.1227 3.29673 10.8675C2.9993 10.2709 2.81251 9.62543 2.74543 8.96226C2.7389 8.60506 2.79022 8.24916 2.89738 7.90836C3.02714 7.29091 3.34901 6.73037 3.81686 6.30706C3.9977 6.12899 4.2139 5.99086 4.45148 5.9016C4.68906 5.81234 4.94273 5.77394 5.19608 5.78887L5.17855 6.13952C5.16983 6.15196 5.16371 6.16604 5.16055 6.1809C5.15739 6.19576 5.15726 6.21111 5.16017 6.22602C5.16308 6.24093 5.16897 6.25511 5.17748 6.26769C5.186 6.28028 5.19696 6.29101 5.20972 6.29926C5.32351 6.82059 5.49332 7.32809 5.71621 7.8129C6.3033 9.05924 6.99678 10.2526 7.78894 11.3798C7.96574 11.6575 8.16099 11.923 8.37336 12.1746L12.2773 8.50251Z" fill="var(--fill-0, black)"/>
<path id="Vector_3" d="M17.6813 9.23694C17.5215 9.2759 17.4241 9.16681 17.317 9.07915C16.6293 8.50837 15.9728 7.91032 15.3339 7.28109C15.2072 7.15837 15.0436 7.0746 14.9598 6.9246C14.9852 6.81746 15.0631 6.78629 15.1254 6.74148C16.6899 5.59937 18.3257 4.55829 20.0228 3.62459C20.7937 3.1731 21.6202 2.82405 22.4813 2.58628C22.8561 2.48567 23.2484 2.46838 23.6306 2.53563C23.8746 2.58487 24.1046 2.68742 24.3044 2.83593C24.5041 2.98445 24.6685 3.17526 24.7858 3.39472C25.0325 3.86101 25.1742 4.37566 25.2008 4.90252C25.2008 4.93758 25.1735 4.9746 25.1599 5.01161C25.0936 4.95122 25.0508 4.86745 24.9651 4.83239C24.7898 4.81018 24.6118 4.83436 24.4488 4.90252C23.8272 5.15859 23.23 5.47024 22.6644 5.83369C20.9384 6.88369 19.3021 8.04863 17.6813 9.23694Z" fill="var(--fill-0, black)"/>
<path id="Vector_4" d="M25.2299 25.2032C25.3186 25.4096 25.3579 25.6338 25.3447 25.858C25.3315 26.0822 25.2662 26.3002 25.1539 26.4948C24.9853 26.8459 24.7306 27.1486 24.4135 27.3748C24.0964 27.6009 23.7272 27.7432 23.3403 27.7883C22.5221 27.9266 21.7663 27.724 21.0299 27.3987C20.0683 26.9448 19.1507 26.4029 18.289 25.7798C17.315 25.1058 16.3896 24.3733 15.4779 23.6214C15.4253 23.5785 15.3766 23.5279 15.3202 23.4733C15.3928 23.3311 15.4983 23.2082 15.6279 23.1149C16.187 22.6064 16.713 22.0649 17.2526 21.537C17.3777 21.3957 17.5284 21.2793 17.6968 21.1941C18.023 21.5545 18.3897 21.8762 18.7896 22.1526C20.266 23.1906 21.8141 24.1228 23.4221 24.9422C23.8811 25.197 24.3568 25.4202 24.8461 25.6103C24.8875 25.6358 24.9341 25.6514 24.9824 25.6558C25.0308 25.6602 25.0795 25.6533 25.1247 25.6357C25.2474 25.5071 25.2065 25.3474 25.2299 25.2032Z" fill="var(--fill-0, black)"/>
<path id="Vector_5" d="M5.18639 6.14734C5.20411 6.16946 5.2162 6.19555 5.22163 6.22338C5.22706 6.2512 5.22566 6.27992 5.21756 6.30708C5.2048 6.29883 5.19383 6.28809 5.18532 6.27551C5.17681 6.26292 5.17092 6.24875 5.16801 6.23384C5.1651 6.21892 5.16523 6.20358 5.16839 6.18872C5.17154 6.17385 5.17767 6.15978 5.18639 6.14734Z" fill="var(--fill-0, #BA161C)"/>
</g>
</svg>
